<?xml version="1.0" standalone="no"?>
<!DOCTYPE svg PUBLIC "-//W3C//DTD SVG 1.1//EN" "http://www.w3.org/Graphics/SVG/1.1/DTD/svg11.dtd">
<svg width="100%" height="100%" viewBox="0 0 2000 2000" version="1.1" xmlns="http://www.w3.org/2000/svg" xmlns:xlink="http://www.w3.org/1999/xlink" xml:space="preserve" style="fill-rule:evenodd;clip-rule:evenodd;stroke-linejoin:round;stroke-miterlimit:1.41421;">
    <g transform="matrix(1.83016,-4.78605e-32,-5.10512e-32,1.83016,-790.402,-571.506)">
        <path d="M1151.58,1250.42L932.542,1250.42L932.542,1181.82C886.005,1240.39 823.021,1269.67 743.588,1269.67C698.657,1269.67 657.336,1261.45 619.625,1245C581.915,1228.55 549.019,1205.49 520.936,1175.8C492.854,1146.11 470.99,1111.21 455.344,1071.09C439.699,1030.98 431.876,987.247 431.876,939.909C431.876,895.78 439.498,853.857 454.743,814.141C469.987,774.424 491.25,739.723 518.529,710.036C545.809,680.349 578.304,656.88 616.015,639.63C653.725,622.379 695.447,613.754 741.181,613.754C818.207,613.754 881.994,640.633 932.542,694.39L932.542,633.01L1182.88,633.01L1182.88,447.667L1400.71,447.667L1400.71,633.01L1524.68,633.01L1524.68,814.742L1400.71,814.742L1400.71,1250.42L1182.88,1250.42L1182.88,814.742L1151.58,814.742L1151.58,1250.42ZM658.138,939.909C658.138,959.968 661.749,978.622 668.97,995.873C676.191,1013.12 686.02,1028.17 698.456,1041.01C710.893,1053.84 725.736,1063.87 742.987,1071.09C760.237,1078.31 778.892,1081.92 798.951,1081.92C818.207,1081.92 836.46,1078.31 853.711,1071.09C870.961,1063.87 885.805,1053.84 898.241,1041.01C910.678,1028.17 920.707,1013.32 928.329,996.475C935.952,979.625 939.763,961.572 939.763,942.316C939.763,923.06 935.952,904.806 928.329,887.556C920.707,870.305 910.678,855.261 898.241,842.423C885.805,829.586 870.961,819.556 853.711,812.335C836.46,805.114 818.207,801.504 798.951,801.504C778.892,801.504 760.237,805.114 742.987,812.335C725.736,819.556 710.893,829.586 698.456,842.423C686.02,855.261 676.191,869.904 668.97,886.352C661.749,902.8 658.138,920.652 658.138,939.909Z" style="fill:black;"/>
    </g>
</svg>
